<svg xmlns="http://www.w3.org/2000/svg" viewBox="0 0 727.27 672.28">
  <g transform="translate(-30.32 -318.67)">
    <g transform="matrix(6.8233 0 0 6.8233 -47.527 191.7)">
      <path style="stroke-linejoin:round;stroke:#000;stroke-linecap:round;stroke-width:3.98;fill:#fff" d="m15.454 21.608 4.879 25.876c-3.7786 6.3618-5.9245 13.63-5.9245 21.346 0 25.017 22.513 45.305 50.271 45.305s50.315-20.288 50.315-45.305c0-7.4745-2.0588-14.519-5.6196-20.736l4.879-25.833-20.562 9.5402c-8.1959-5.2251-18.217-8.3205-29.013-8.3205-10.481 0-20.213 2.8909-28.272 7.8413l-20.948-9.714z"/>
      <path style="stroke-linejoin:round;stroke:#000;stroke-linecap:round;stroke-width:2.788;fill:none" d="m41.227 86.168c0.71997 5.451 3.9594 11.035 11.152 11.152 9.5596 0.15794 17.384-10.258 19.682-17.547-5.2586-0.76083-10.517-0.71929-15.776-0.23408 2.2988 6.9385 10.416 17.652 18.397 17.781 7.6568 0.12382 10.288-4.9103 11.152-11.152"/>
    </g>
  </g>
</svg>
